<svg xmlns="http://www.w3.org/2000/svg" width="2880" height="1800">
  <path fill="none" stroke="#b5c4ff" stroke-linecap="round" stroke-linejoin="round" stroke-width="200" d="M728 1693s225-287 388-343c137-47-895 183-706 42 106-80 1032-542 757-447-417 144-975 172-975 172"/>
  <g fill="none" stroke="#295ad4" stroke-linecap="round" stroke-linejoin="round">
    <path stroke-width="132.4" d="M1988 133c-52 49 0 108 0 108s66 98 102 80c36-19 96-31 103-103 4-40-11-92-53-108-24-9-103-23-152 23ZM2449 637c-142 33-152 72-163 113-13 46 46 114 97 120 49 6 93 1 117-42 68-121 2-202-51-191Z"/>
    <path stroke-width="161.5" d="M1998 807s125-207 191-288c110-135 346-351 346-351"/>
  </g>
  <g fill="none" stroke="#295ad4" stroke-linecap="round" stroke-linejoin="round" stroke-width="143.6">
    <path d="M192 321S458 8 430 129c-107 459-2 698-2 698M825 110c-114 38-196 69-189 332 6 264 153 298 222 301 50 2 208-12 178-324-20-200-61-359-211-309ZM1428 110c-114 38-196 69-189 332 6 264 153 298 222 301 50 2 208-12 178-324-20-200-61-359-211-309Z"/>
  </g>
</svg>
