<svg xmlns="http://www.w3.org/2000/svg" width="1024" height="1024">
  <path fill="none" stroke="#295ad4" stroke-linecap="round" stroke-linejoin="round" stroke-width="87.1" d="M58.3 728.2c454.1-21.2 473.6-30.5 473.6-30.5M46.4 818.8c478.8 7.2 497.3 6 497.3 6M668 135c1 155 24.8 213.7 25.3 310.4 1.8 363.4-22.6 426.6-22.6 426.6s338.7-65.8 301.4-419.3C934.8 99 576.2 265.5 576.2 265.5M46.4 397.8c370.3-.5 382-30.4 382-30.4s17.4-184.4-158.8-184c-176.2.4-171 180.8-171 180.8.1 0-13 224.3 158.4 224.5 179.8.3 176-103.3 176-103.3"/>
</svg>
