<svg xmlns="http://www.w3.org/2000/svg" width="1024" height="1024">
  <path fill="none" stroke="#b5c4ff" stroke-linecap="round" stroke-linejoin="round" stroke-width="72" d="M530 401s28 51-146 134 229 52 224-14c0 0-255 137-268 185 0 0 318-99 302-49-16 51-374 144-335 164s302 35 412-12"/>
  <path fill="none" stroke="#295ad4" stroke-linecap="round" stroke-linejoin="round" stroke-width="72" d="m402 103 2 235S150 531 139 880c0 1-2 11 10 17 395 198 736-7 736-11-4-345-277-547-277-547l-2-220 63-41s-84-35-157-35c-89 0-168 35-168 35l58 25Z"/>
</svg>
